<?xml version="1.0" encoding="UTF-8"?>
<svg id="Warstwa_2" data-name="Warstwa 2" xmlns="http://www.w3.org/2000/svg" xmlns:xlink="http://www.w3.org/1999/xlink" viewBox="0 0 782.21 263.54">
  <defs>
    <style>
      .cls-1 {
        fill: #010101;
      }

      .cls-2, .cls-3 {
        fill: #fff;
      }

      .cls-4 {
        fill: #332618;
      }

      .cls-5 {
        fill: #332617;
      }

      .cls-6 {
        fill: url(#_Градієнт_без_назви_2);
      }

      .cls-7 {
        fill: url(#_Градієнт_без_назви_2-10);
      }

      .cls-8 {
        fill: url(#Gradient_bez_nazwy_104-4);
      }

      .cls-9 {
        fill: url(#Gradient_bez_nazwy_104-3);
      }

      .cls-10 {
        fill: url(#Gradient_bez_nazwy_104-2);
      }

      .cls-11 {
        fill: url(#Gradient_bez_nazwy_104-5);
      }

      .cls-12 {
        fill: url(#Gradient_bez_nazwy_104-6);
      }

      .cls-13 {
        fill: url(#Gradient_bez_nazwy_104-7);
      }

      .cls-14 {
        opacity: .15;
      }

      .cls-15 {
        opacity: .22;
      }

      .cls-16, .cls-3 {
        opacity: .25;
      }

      .cls-17 {
        opacity: .5;
      }

      .cls-18 {
        fill: url(#Gradient_bez_nazwy_94-4);
      }

      .cls-19 {
        fill: url(#Gradient_bez_nazwy_94-5);
      }

      .cls-20 {
        fill: url(#Gradient_bez_nazwy_94-6);
      }

      .cls-21 {
        fill: url(#Gradient_bez_nazwy_94-3);
      }

      .cls-22 {
        fill: url(#Gradient_bez_nazwy_94-2);
      }

      .cls-23 {
        fill: url(#Gradient_bez_nazwy_48-2);
      }

      .cls-24 {
        fill: url(#Gradient_bez_nazwy_48-3);
      }

      .cls-25 {
        fill: url(#Gradient_bez_nazwy_48-5);
      }

      .cls-26 {
        fill: url(#Gradient_bez_nazwy_48-4);
      }

      .cls-27 {
        fill: url(#Gradient_bez_nazwy_2-3);
      }

      .cls-28 {
        fill: url(#Gradient_bez_nazwy_2-4);
      }

      .cls-29 {
        fill: url(#Gradient_bez_nazwy_2-6);
      }

      .cls-30 {
        fill: url(#Gradient_bez_nazwy_2-2);
      }

      .cls-31 {
        fill: url(#Gradient_bez_nazwy_2-5);
      }

      .cls-32 {
        fill: url(#Gradient_bez_nazwy_104);
      }

      .cls-33 {
        fill: url(#Gradient_bez_nazwy_2);
      }

      .cls-34 {
        fill: url(#_Градієнт_без_назви_2-2);
      }

      .cls-35 {
        fill: url(#_Градієнт_без_назви_2-3);
      }

      .cls-36 {
        fill: url(#_Градієнт_без_назви_2-9);
      }

      .cls-37 {
        fill: url(#_Градієнт_без_назви_2-4);
      }

      .cls-38 {
        fill: url(#_Градієнт_без_назви_2-6);
      }

      .cls-39 {
        fill: url(#_Градієнт_без_назви_2-5);
      }

      .cls-40 {
        fill: url(#_Градієнт_без_назви_2-7);
      }

      .cls-41 {
        fill: url(#_Градієнт_без_назви_2-8);
      }

      .cls-42 {
        fill: url(#Gradient_bez_nazwy_48);
      }

      .cls-43 {
        fill: url(#Gradient_bez_nazwy_94);
      }
    </style>
    <linearGradient id="Gradient_bez_nazwy_48" data-name="Gradient bez nazwy 48" x1="98.04" y1="16.01" x2="98.04" y2="185.39" gradientUnits="userSpaceOnUse">
      <stop offset="0" stop-color="#ffe04b"/>
      <stop offset="1" stop-color="#f6a217"/>
    </linearGradient>
    <linearGradient id="Gradient_bez_nazwy_48-2" data-name="Gradient bez nazwy 48" x1="264.43" y1="16.01" x2="264.43" y2="185.39" xlink:href="#Gradient_bez_nazwy_48"/>
    <linearGradient id="Gradient_bez_nazwy_48-3" data-name="Gradient bez nazwy 48" x1="684.25" y1="16.01" x2="684.25" y2="185.39" xlink:href="#Gradient_bez_nazwy_48"/>
    <linearGradient id="Gradient_bez_nazwy_48-4" data-name="Gradient bez nazwy 48" x1="515.47" y1="16.01" x2="515.47" y2="185.39" xlink:href="#Gradient_bez_nazwy_48"/>
    <linearGradient id="Gradient_bez_nazwy_48-5" data-name="Gradient bez nazwy 48" x1="391.14" y1="16.01" x2="391.14" y2="185.39" xlink:href="#Gradient_bez_nazwy_48"/>
    <linearGradient id="Gradient_bez_nazwy_94" data-name="Gradient bez nazwy 94" x1="96.71" y1="247.52" x2="96.71" y2="185.39" gradientUnits="userSpaceOnUse">
      <stop offset="0" stop-color="#f6a217"/>
      <stop offset="1" stop-color="#95650c"/>
    </linearGradient>
    <linearGradient id="Gradient_bez_nazwy_94-2" data-name="Gradient bez nazwy 94" x1="223.01" y1="247.52" x2="223.01" y2="185.39" xlink:href="#Gradient_bez_nazwy_94"/>
    <linearGradient id="Gradient_bez_nazwy_94-3" data-name="Gradient bez nazwy 94" x1="307.17" y1="247.52" x2="307.17" y2="185.39" xlink:href="#Gradient_bez_nazwy_94"/>
    <linearGradient id="Gradient_bez_nazwy_94-4" data-name="Gradient bez nazwy 94" x1="685.58" y1="247.52" x2="685.58" y2="185.39" xlink:href="#Gradient_bez_nazwy_94"/>
    <linearGradient id="Gradient_bez_nazwy_94-5" data-name="Gradient bez nazwy 94" x1="517.2" y1="247.52" x2="517.2" y2="185.39" xlink:href="#Gradient_bez_nazwy_94"/>
    <linearGradient id="Gradient_bez_nazwy_94-6" data-name="Gradient bez nazwy 94" x1="391.14" y1="247.52" x2="391.14" y2="185.39" xlink:href="#Gradient_bez_nazwy_94"/>
    <linearGradient id="Gradient_bez_nazwy_104" data-name="Gradient bez nazwy 104" x1="310.11" y1="16" x2="310.11" y2="50.66" gradientUnits="userSpaceOnUse">
      <stop offset="0" stop-color="#fff"/>
      <stop offset="1" stop-color="#fff" stop-opacity="0"/>
    </linearGradient>
    <linearGradient id="Gradient_bez_nazwy_104-2" data-name="Gradient bez nazwy 104" x1="675.66" x2="675.66" y2="50.66" xlink:href="#Gradient_bez_nazwy_104"/>
    <linearGradient id="Gradient_bez_nazwy_104-3" data-name="Gradient bez nazwy 104" x1="553.9" y1="15.9" x2="553.9" y2="50.91" xlink:href="#Gradient_bez_nazwy_104"/>
    <linearGradient id="Gradient_bez_nazwy_104-4" data-name="Gradient bez nazwy 104" x1="391.15" x2="391.15" y2="50.66" xlink:href="#Gradient_bez_nazwy_104"/>
    <linearGradient id="Gradient_bez_nazwy_104-5" data-name="Gradient bez nazwy 104" x1="228.39" x2="228.39" xlink:href="#Gradient_bez_nazwy_104"/>
    <linearGradient id="Gradient_bez_nazwy_104-6" data-name="Gradient bez nazwy 104" x1="106.12" x2="106.12" y2="56.52" xlink:href="#Gradient_bez_nazwy_104"/>
    <linearGradient id="Gradient_bez_nazwy_104-7" data-name="Gradient bez nazwy 104" x1="472.15" y1="15.9" x2="472.15" y2="50.72" xlink:href="#Gradient_bez_nazwy_104"/>
    <linearGradient id="Gradient_bez_nazwy_2" data-name="Gradient bez nazwy 2" x1="391.07" y1="206.67" x2="391.07" y2="247.52" gradientUnits="userSpaceOnUse">
      <stop offset="0" stop-color="#fff" stop-opacity="0"/>
      <stop offset="1" stop-color="#fff"/>
    </linearGradient>
    <linearGradient id="Gradient_bez_nazwy_2-2" data-name="Gradient bez nazwy 2" x1="308.07" y1="206.74" x2="308.07" xlink:href="#Gradient_bez_nazwy_2"/>
    <linearGradient id="Gradient_bez_nazwy_2-3" data-name="Gradient bez nazwy 2" x1="516.02" y1="206.79" x2="516.02" xlink:href="#Gradient_bez_nazwy_2"/>
    <linearGradient id="Gradient_bez_nazwy_2-4" data-name="Gradient bez nazwy 2" x1="682.7" y1="206.74" x2="682.7" xlink:href="#Gradient_bez_nazwy_2"/>
    <linearGradient id="Gradient_bez_nazwy_2-5" data-name="Gradient bez nazwy 2" x1="224.61" y1="206.71" x2="224.61" xlink:href="#Gradient_bez_nazwy_2"/>
    <linearGradient id="Gradient_bez_nazwy_2-6" data-name="Gradient bez nazwy 2" x1="99.63" y1="206.75" x2="99.63" xlink:href="#Gradient_bez_nazwy_2"/>
    <linearGradient id="_Градієнт_без_назви_2" data-name="Градієнт без назви 2" x1="9.11" y1="65.34" x2="178.9" y2="163.37" gradientUnits="userSpaceOnUse">
      <stop offset="0" stop-color="#fff"/>
      <stop offset="1" stop-color="#fff" stop-opacity="0"/>
    </linearGradient>
    <linearGradient id="_Градієнт_без_назви_2-2" data-name="Градієнт без назви 2" x1="174.01" y1="132.5" x2="255.54" y2="179.57" xlink:href="#_Градієнт_без_назви_2"/>
    <linearGradient id="_Градієнт_без_назви_2-3" data-name="Градієнт без назви 2" x1="255.13" y1="15.67" x2="260.9" y2="19" xlink:href="#_Градієнт_без_назви_2"/>
    <linearGradient id="_Градієнт_без_назви_2-4" data-name="Градієнт без назви 2" x1="272.56" y1="181.54" x2="279.95" y2="185.81" xlink:href="#_Градієнт_без_назви_2"/>
    <linearGradient id="_Градієнт_без_назви_2-5" data-name="Градієнт без назви 2" x1="271.93" y1="30.59" x2="353.22" y2="77.52" xlink:href="#_Градієнт_без_назви_2"/>
    <linearGradient id="_Градієнт_без_назви_2-6" data-name="Градієнт без назви 2" x1="702.94" y1="11.53" x2="753.23" y2="40.56" xlink:href="#_Градієнт_без_назви_2"/>
    <linearGradient id="_Градієнт_без_назви_2-7" data-name="Градієнт без назви 2" x1="577.16" y1="98.76" x2="737" y2="191.04" xlink:href="#_Градієнт_без_назви_2"/>
    <linearGradient id="_Градієнт_без_назви_2-8" data-name="Градієнт без назви 2" x1="437.31" y1="22.43" x2="592.78" y2="112.19" xlink:href="#_Градієнт_без_назви_2"/>
    <linearGradient id="_Градієнт_без_назви_2-9" data-name="Градієнт без назви 2" x1="389.5" y1="14.14" x2="429.17" y2="37.04" xlink:href="#_Градієнт_без_назви_2"/>
    <linearGradient id="_Градієнт_без_назви_2-10" data-name="Градієнт без назви 2" x1="344.4" y1="102.7" x2="439.07" y2="157.36" xlink:href="#_Градієнт_без_назви_2"/>
  </defs>
  <g id="SHADOW">
    <polygon class="cls-5" points="597.76 255.52 591.97 172.87 590.07 172.87 588.21 187.07 574.35 187.07 570.07 220.91 555.57 220.91 551.56 255.52 475 255.52 473.96 220.91 453.59 220.91 452.8 187.07 433.25 187.07 431.64 170.35 431.26 170.35 431.43 185.44 429.79 255.52 352.5 255.52 350.86 185.44 351 172.87 349.88 172.87 348.51 255.52 271.62 255.52 267.95 212.26 266.07 255.52 189.86 255.52 186.21 231.45 184.53 255.52 27.06 255.52 8.23 185.96 30.54 8.01 751.75 8.01 756.86 48.76 743.19 106.94 744.23 115.72 738.02 141.91 768.54 141.91 774.06 185.96 755.24 255.52 597.76 255.52"/>
    <path class="cls-4" d="M744.69,16.01l4.05,32.33-13.66,58.14,1.04,8.78-8.22,34.66h33.58l4.45,35.48-16.81,62.13h-143.89s-5.8-82.65-5.8-82.65h-16.38l-1.86,14.19h-13.89l-4.28,33.84h-14.57l-4.01,34.61h-61.67l-1.04-34.61h-20.32l-.79-33.84h-20.1l-1.61-16.71h-15.74l.25,23.04-1.45,62.13h-61.67s-1.45-62.13-1.45-62.13l.22-20.52h-17.07l-1.37,82.65h-61.67l-5.27-62.13,.81-20.52-13.12,14.19-2.98,68.45h-61.67s-9.41-62.13-9.41-62.13l1.68-20.52h-6.14l-5.8,82.65H33.18s-16.82-62.13-16.82-62.13L37.6,16.01H744.69M758.81,0H37.6s-14.12,0-14.12,0l-1.76,14.01L.49,183.4l-.39,3.13,.82,3.04,16.82,62.13,3.2,11.82H177.07s5.91,0,5.91,0h0s13.76,0,13.76,0h61.67s15.32,0,15.32,0h148.25s15.63,0,15.63,0l.36-15.63,1.23-52.83h5.78l.42,18.21,.36,15.63h20.42l.57,19.09,.47,15.52h91.45l1.64-14.16,2.37-20.45h14.42l1.77-13.99,2.51-19.85h4.1l3.76,53.57,1.04,14.88h158.81s12.25,0,12.25,0l3.2-11.82,16.81-62.13,.82-3.04-.39-3.13-4.45-35.48-1.76-14.01h-27.46l3.55-14.96,.65-2.76-.33-2.81-.71-5.98,13.02-55.4,.66-2.8-.36-2.85-4.05-32.33L758.81,0h0Z"/>
  </g>
  <g id="MAIN">
    <path class="cls-42" d="M174.81,81.4h-20.77s-1.38,16.83-1.38,16.83h20.89s-6.54,87.16-6.54,87.16H16.36S37.6,16.01,37.6,16.01H179.71s-4.9,65.4-4.9,65.4Zm-68.94,68.51l3.35-34.66h-21.01s-3.6,34.66-3.6,34.66h21.26Zm6.62-68.51l3.19-33.07h-20.53s-3.43,33.07-3.43,33.07h20.77Z"/>
    <polygon class="cls-23" points="341.26 16.01 338.26 185.39 273.7 185.39 276.46 115.25 255.43 115.25 252.17 185.39 187.61 185.39 199.14 16.01 260.05 16.01 257.01 81.4 277.79 81.4 280.36 16.01 341.26 16.01"/>
    <polygon class="cls-24" points="744.69 16.01 748.75 48.33 666.61 48.33 669.8 81.4 732.12 81.4 736.12 115.25 673.07 115.25 676.42 149.91 761.48 149.91 765.93 185.39 615.28 185.39 602.58 16.01 744.69 16.01"/>
    <polygon class="cls-26" points="583.15 16.01 589.91 115.25 568.88 115.25 570.99 149.91 549.73 149.91 551.63 185.39 487.07 185.39 485.93 149.91 464.67 149.91 463.81 115.25 442.78 115.25 441.03 16.01 501.94 16.01 504.5 81.4 525.28 81.4 522.24 16.01 583.15 16.01"/>
    <polygon class="cls-25" points="421.6 16.01 423.43 185.39 358.86 185.39 360.69 16.01 421.6 16.01"/>
  </g>
  <g>
    <polygon class="cls-43" points="167.01 185.39 177.07 247.52 33.18 247.52 16.36 185.39 167.01 185.39"/>
    <polygon class="cls-22" points="252.17 185.39 258.41 247.52 196.74 247.52 187.61 185.39 252.17 185.39"/>
    <polygon class="cls-21" points="338.26 185.39 340.64 247.52 278.97 247.52 273.7 185.39 338.26 185.39"/>
    <polygon class="cls-18" points="765.93 185.39 749.11 247.52 605.22 247.52 615.28 185.39 765.93 185.39"/>
    <polygon class="cls-19" points="551.63 185.39 544.44 247.52 482.77 247.52 487.07 185.39 551.63 185.39"/>
    <polygon class="cls-20" points="423.43 185.39 421.98 247.52 360.31 247.52 358.86 185.39 423.43 185.39"/>
  </g>
  <g id="SHADOW_BOTTOM" data-name="SHADOW BOTTOM" class="cls-16">
    <polygon class="cls-1" points="167.01 185.39 177.07 247.52 33.18 247.52 16.36 185.39 167.01 185.39"/>
    <polygon class="cls-1" points="252.17 185.39 258.41 247.52 196.74 247.52 187.61 185.39 252.17 185.39"/>
    <polygon class="cls-1" points="338.26 185.39 340.64 247.52 278.97 247.52 273.7 185.39 338.26 185.39"/>
    <polygon class="cls-1" points="765.93 185.39 749.11 247.52 605.22 247.52 615.28 185.39 765.93 185.39"/>
    <polygon class="cls-1" points="551.63 185.39 544.44 247.52 482.77 247.52 487.07 185.39 551.63 185.39"/>
    <polygon class="cls-1" points="423.43 185.39 421.98 247.52 360.31 247.52 358.86 185.39 423.43 185.39"/>
  </g>
  <g id="OUTLINE_SMALL" data-name="OUTLINE SMALL" class="cls-16">
    <g>
      <path class="cls-2" d="M16.58,183.63l-.22,1.76H167.01l.13-1.76H16.58Z"/>
      <g>
        <polygon class="cls-2" points="252.26 183.63 252.18 185.39 187.6 185.39 187.72 183.63 252.26 183.63"/>
        <polygon class="cls-2" points="338.29 183.63 338.27 185.39 273.7 185.39 273.77 183.63 338.29 183.63"/>
      </g>
      <polygon class="cls-2" points="765.93 185.39 615.28 185.39 615.15 183.63 765.71 183.63 765.93 185.39"/>
      <polygon class="cls-2" points="551.64 185.39 487.06 185.39 487.01 183.63 551.53 183.63 551.64 185.39"/>
      <polygon class="cls-2" points="423.43 185.39 358.86 185.39 358.89 183.63 423.41 183.63 423.43 185.39"/>
    </g>
    <polygon class="cls-3" points="167.14 183.63 167.01 185.39 16.36 185.39 16.36 181.88 16.8 181.88 16.58 183.63 167.14 183.63"/>
    <polygon class="cls-3" points="252.26 183.63 252.18 185.39 187.6 185.39 187.72 183.63 252.26 183.63"/>
    <polygon class="cls-3" points="338.29 183.63 338.27 185.39 273.7 185.39 273.77 183.63 338.29 183.63"/>
    <polygon class="cls-3" points="423.43 185.39 358.86 185.39 358.89 183.63 423.41 183.63 423.43 185.39"/>
    <polygon class="cls-3" points="551.64 185.39 487.06 185.39 487.01 183.63 551.53 183.63 551.64 185.39"/>
    <polygon class="cls-3" points="765.93 181.88 765.93 185.39 615.28 185.39 615.15 183.63 765.71 183.63 765.48 181.88 765.93 181.88"/>
    <polygon class="cls-2" points="112.48 81.4 112.31 83.16 91.54 83.16 91.72 81.4 112.48 81.4"/>
    <polygon class="cls-2" points="257.02 81.4 277.79 81.4 277.72 83.16 256.94 83.16 257.02 81.4"/>
    <polygon class="cls-2" points="525.29 81.4 525.37 83.16 504.59 83.16 504.52 81.4 525.29 81.4"/>
    <polygon class="cls-2" points="732.34 83.16 670 83.16 669.83 81.4 732.13 81.4 732.34 83.16"/>
    <polygon class="cls-2" points="105.88 149.91 105.72 151.67 84.41 151.67 84.59 149.91 105.88 149.91"/>
    <polygon class="cls-2" points="761.71 151.67 676.58 151.67 676.42 149.91 761.48 149.91 761.71 151.67"/>
    <polygon class="cls-2" points="105.88 149.91 105.72 151.67 84.41 151.67 84.59 149.91 105.88 149.91"/>
    <polygon class="cls-2" points="761.71 151.67 676.58 151.67 676.42 149.91 761.48 149.91 761.71 151.67"/>
  </g>
  <g id="OUTLINE_TOP" data-name="OUTLINE TOP" class="cls-17">
    <polygon class="cls-32" points="328.34 16 321.89 16 315.43 16 308.97 16 302.51 16 296.04 16 289.58 16 283.13 16 283.13 16 280.44 16 280.19 21.72 279.94 27.46 279.7 33.23 279.46 39.02 279.2 44.83 278.95 50.66 285.85 50.66 286.09 44.83 286.33 39.02 286.56 33.23 286.79 27.46 287.02 21.72 287.02 21.72 289.38 21.72 295.85 21.72 302.32 21.72 308.79 21.72 315.28 21.72 321.74 21.72 328.22 21.72 334.7 21.72 334.57 27.46 334.47 33.23 334.34 39.02 334.22 44.83 334.11 50.66 340.65 50.66 340.66 50.66 340.76 44.83 340.85 39.02 340.96 33.23 341.06 27.46 341.17 21.72 341.27 16 334.8 16 328.34 16"/>
    <polygon class="cls-10" points="748.75 48.33 742.22 48.33 741.78 44.83 741.06 39.02 740.35 33.23 739.65 27.46 738.94 21.72 609.47 21.72 609.93 27.46 610.36 33.23 610.81 39.02 611.27 44.83 611.72 50.66 605.18 50.66 604.73 44.83 604.3 39.02 603.86 33.23 603.44 27.46 603.01 21.72 602.57 16 744.7 16 745.42 21.72 746.14 27.46 746.85 33.23 747.57 39.02 748.3 44.83 748.75 48.33"/>
    <polygon class="cls-9" points="584.73 39.18 584.33 33.35 583.94 27.54 583.53 21.76 583.14 16 576.65 16 570.16 16 563.67 16 557.19 16 550.71 16 544.22 16 537.76 16 531.28 16 529.08 16 529.08 15.9 522.26 15.9 522.55 21.65 522.82 27.41 523.11 33.2 523.39 39.02 523.68 44.86 523.96 50.72 530.86 50.73 530.57 44.86 530.26 39.03 529.97 33.21 529.67 27.42 529.38 21.75 531.57 21.75 538.06 21.75 544.54 21.75 551.03 21.75 557.53 21.75 564.03 21.76 570.53 21.76 577.03 21.76 577.42 27.54 577.8 33.35 578.2 39.17 578.58 45.02 578.97 50.9 585.54 50.91 585.14 45.03 584.73 39.18"/>
    <polygon class="cls-8" points="421.84 39.02 421.78 33.23 421.72 27.46 421.66 21.72 421.59 16 415.51 16 409.42 16 403.32 16 397.23 16 391.15 16 385.05 16 378.97 16 372.88 16 366.78 16 360.7 16 360.64 21.72 360.57 27.46 360.51 33.23 360.45 39.02 360.39 44.83 360.32 50.66 366.48 50.66 366.53 44.83 366.58 39.02 366.64 33.23 366.69 27.46 366.73 21.72 372.83 21.72 378.95 21.72 385.04 21.72 391.15 21.72 397.24 21.72 403.34 21.72 409.46 21.72 415.55 21.72 415.6 27.46 415.66 33.23 415.71 39.02 415.76 44.83 415.8 50.66 421.97 50.66 421.91 44.83 421.84 39.02"/>
    <polygon class="cls-11" points="257.28 16 250.82 16 244.36 16 237.91 16 231.45 16 224.98 16 218.53 16 212.06 16 205.6 16 199.15 16 198.76 21.72 198.36 27.46 197.97 33.23 197.57 39.02 197.19 44.83 196.78 50.66 203.32 50.66 203.71 44.83 204.08 39.02 204.47 33.23 204.85 27.46 205.22 21.72 211.71 21.72 218.18 21.72 224.65 21.72 231.13 21.72 237.59 21.72 244.06 21.72 250.54 21.72 252.87 21.72 252.87 21.72 252.57 27.46 252.26 33.23 251.96 39.02 251.66 44.83 251.35 50.66 258.24 50.66 258.54 44.83 258.84 39.02 259.12 33.23 259.42 27.46 259.7 21.72 259.99 16 257.28 16 257.28 16"/>
    <polygon class="cls-12" points="166.79 16 160.33 16 153.88 16 147.42 16 140.96 16 134.49 16 128.03 16 121.57 16 115.11 16 108.66 16 102.2 16 95.73 16 89.28 16 82.81 16 76.35 16 69.9 16 63.44 16 56.97 16 50.52 16 44.05 16 37.59 16 36.88 21.72 36.16 27.46 35.44 33.23 34.72 39.02 33.98 44.83 33.26 50.66 32.52 56.52 39.06 56.52 39.78 50.66 40.51 44.83 41.22 39.02 41.94 33.23 42.65 27.46 43.35 21.72 49.82 21.72 56.29 21.72 62.78 21.72 69.24 21.72 75.72 21.72 82.19 21.72 88.67 21.72 95.14 21.72 101.6 21.72 108.08 21.72 114.55 21.72 121.03 21.72 127.51 21.72 133.97 21.72 140.45 21.72 146.93 21.72 153.4 21.72 159.86 21.72 166.33 21.72 172.81 21.72 172.36 27.46 171.93 33.23 171.47 39.02 171.03 44.83 170.57 50.66 177.11 50.66 177.55 44.83 177.98 39.02 178.43 33.23 178.85 27.46 179.28 21.72 179.72 16 173.26 16 166.79 16"/>
    <polygon class="cls-13" points="502.77 39 502.53 33.19 502.29 27.4 502.05 21.64 501.81 15.9 495 15.9 495.01 16 492.53 16 486.07 16 479.64 16 473.19 16 466.76 16 460.31 16 453.89 16 447.46 16 441.03 16 441.14 21.73 441.24 27.48 441.35 33.25 441.47 39.05 441.58 44.87 441.7 50.71 448.21 50.72 448.07 44.88 447.95 39.06 447.82 33.25 447.71 27.48 447.57 21.73 454.03 21.73 460.47 21.73 466.92 21.74 473.36 21.74 479.82 21.74 486.28 21.74 492.73 21.74 495.23 21.74 495.46 27.4 495.68 33.19 495.91 39 496.14 44.83 496.38 50.68 503.27 50.69 503.01 44.84 502.77 39"/>
  </g>
  <g id="OUTLINE_BOTTOM" data-name="OUTLINE BOTTOM" class="cls-16">
    <polygon class="cls-33" points="416.38 213.63 416.26 220.53 416.15 227.37 416.03 234.14 415.91 240.86 409.7 240.86 403.48 240.86 397.27 240.86 391.04 240.86 384.84 240.86 378.63 240.86 372.41 240.86 366.2 240.86 366.08 234.14 365.98 227.37 365.88 220.53 365.76 213.63 365.65 206.67 359.29 206.67 359.44 213.63 359.57 220.53 359.71 227.37 359.84 234.14 359.98 240.86 360.11 247.52 366.3 247.52 372.48 247.52 378.68 247.52 384.86 247.52 391.04 247.52 397.23 247.52 403.43 247.52 409.6 247.52 415.79 247.52 421.97 247.52 422.11 240.86 422.27 234.14 422.41 227.37 422.55 220.53 422.71 213.63 422.84 206.67 416.49 206.67 416.38 213.63"/>
    <polygon class="cls-30" points="340.14 234.2 339.88 227.44 339.63 220.61 339.36 213.71 339.09 206.74 332.74 206.74 333.03 213.71 333.33 220.61 333.63 227.44 333.91 234.2 334.2 240.89 327.99 240.89 321.79 240.89 315.59 240.89 309.4 240.89 303.2 240.89 296.99 240.89 290.8 240.89 284.6 240.89 284.06 234.2 283.53 227.44 282.97 220.61 282.43 213.72 281.86 206.74 275.51 206.74 276.09 213.72 276.69 220.61 277.27 227.44 277.83 234.2 278.41 240.89 278.97 247.52 285.14 247.52 291.3 247.52 297.47 247.52 303.64 247.52 309.8 247.52 315.97 247.52 322.14 247.52 328.3 247.52 334.47 247.52 340.64 247.52 340.39 240.89 340.14 234.2"/>
    <polygon class="cls-27" points="542.1 213.76 541.31 220.66 540.54 227.48 539.78 234.23 539.02 240.91 532.82 240.91 526.61 240.91 520.42 240.91 514.22 240.91 508.02 240.91 501.81 240.91 495.61 240.91 489.42 240.91 489.91 234.23 490.41 227.49 490.91 220.66 491.41 213.76 491.92 206.79 485.54 206.79 485.06 213.76 484.59 220.66 484.14 227.49 483.68 234.23 483.22 240.91 482.77 247.52 488.94 247.52 495.09 247.52 501.27 247.52 507.44 247.52 513.6 247.52 519.77 247.52 525.94 247.52 532.1 247.52 538.27 247.52 544.44 247.52 545.22 240.91 546.02 234.23 546.81 227.48 547.63 220.66 548.44 213.76 549.27 206.79 542.9 206.79 542.1 213.76"/>
    <polygon class="cls-28" points="753.11 206.74 751.27 213.71 749.43 220.61 747.6 227.44 745.8 234.2 744.02 240.89 737.14 240.89 730.25 240.89 723.36 240.89 716.48 240.89 709.59 240.89 702.71 240.89 695.81 240.89 688.94 240.89 682.04 240.89 675.17 240.89 668.28 240.89 661.39 240.89 654.49 240.89 647.61 240.89 640.73 240.89 633.84 240.89 626.96 240.89 620.06 240.89 613.19 240.89 614.3 234.2 615.43 227.44 616.57 220.61 617.72 213.71 618.89 206.74 611.82 206.74 610.7 213.71 609.57 220.61 608.47 227.44 607.38 234.2 606.29 240.89 605.22 247.52 612.07 247.52 618.93 247.52 625.78 247.52 632.64 247.52 639.48 247.52 646.33 247.52 653.19 247.52 660.03 247.52 666.9 247.52 673.74 247.52 680.59 247.52 687.45 247.52 694.29 247.52 701.15 247.52 708.01 247.52 714.85 247.52 721.71 247.52 728.55 247.52 735.41 247.52 742.27 247.52 749.11 247.52 750.92 240.89 752.73 234.2 754.55 227.44 756.42 220.61 758.28 213.71 760.18 206.74 753.11 206.74"/>
    <polygon class="cls-31" points="257.06 234.18 256.39 227.41 255.71 220.58 255.02 213.68 254.31 206.71 247.97 206.71 248.7 213.68 249.43 220.58 250.14 227.41 250.84 234.18 251.54 240.88 245.34 240.88 239.16 240.88 232.96 240.88 226.77 240.88 220.56 240.88 214.38 240.88 208.18 240.88 201.97 240.88 201.03 234.18 200.07 227.41 199.11 220.58 198.16 213.68 197.18 206.71 190.82 206.71 191.83 213.68 192.83 220.58 193.82 227.41 194.8 234.18 195.78 240.88 196.73 247.52 202.91 247.52 209.07 247.52 215.24 247.52 221.41 247.52 227.57 247.52 233.74 247.52 239.91 247.52 246.07 247.52 252.24 247.52 258.41 247.52 257.73 240.88 257.06 234.18"/>
    <polygon class="cls-29" points="174.94 234.21 173.85 227.45 172.77 220.62 171.67 213.72 170.54 206.75 163.48 206.75 164.64 213.72 165.78 220.62 166.91 227.45 168.02 234.21 169.13 240.89 162.23 240.89 155.35 240.89 148.47 240.89 141.58 240.89 134.7 240.89 127.81 240.89 120.93 240.89 114.04 240.89 107.17 240.89 100.28 240.89 93.4 240.89 86.51 240.89 79.63 240.89 72.73 240.89 65.85 240.89 58.97 240.89 52.08 240.89 45.2 240.89 38.31 240.89 36.54 234.21 34.74 227.45 32.94 220.62 31.09 213.72 29.24 206.75 22.19 206.75 24.07 213.72 25.95 220.62 27.79 227.45 29.63 234.21 31.44 240.89 33.22 247.52 40.07 247.52 46.93 247.52 53.78 247.52 60.63 247.52 67.47 247.52 74.32 247.52 81.18 247.52 88.03 247.52 94.88 247.52 101.72 247.52 108.57 247.52 115.43 247.52 122.27 247.52 129.11 247.52 135.97 247.52 142.81 247.52 149.67 247.52 156.52 247.52 163.36 247.52 170.22 247.52 177.06 247.52 176.01 240.89 174.94 234.21"/>
  </g>
  <g id="POWDER" class="cls-15">
    <polygon class="cls-2" points="763.72 167.53 761.5 149.89 740.35 149.89 742.43 167.53 721.14 167.53 699.85 167.53 698.02 149.89 676.86 149.89 655.7 149.89 657.28 167.53 636 167.53 634.54 149.89 633.11 132.46 631.69 115.24 610.77 115.24 612.07 132.46 613.38 149.89 614.71 167.53 616.05 185.39 637.47 185.39 658.88 185.39 680.3 185.39 701.71 185.39 723.13 185.39 744.55 185.39 765.96 185.39 763.72 167.53"/>
    <polygon class="cls-2" points="736.24 115.24 734.23 98.21 713.44 98.21 715.33 115.24 736.24 115.24"/>
    <polygon class="cls-2" points="527.13 115.24 527.93 132.46 548.96 132.46 548.04 115.24 527.13 115.24"/>
    <polygon class="cls-2" points="570 132.46 548.96 132.46 549.9 149.89 571.06 149.89 570 132.46"/>
    <polygon class="cls-2" points="529.55 167.53 508.27 167.53 507.58 149.89 506.9 132.46 485.86 132.46 485.31 115.24 464.4 115.24 464.83 132.46 465.26 149.89 486.41 149.89 486.98 167.53 487.55 185.39 508.97 185.39 530.38 185.39 551.8 185.39 550.84 167.53 549.9 149.89 528.73 149.89 529.55 167.53"/>
    <polygon class="cls-2" points="422.93 149.89 422.75 132.46 401.72 132.46 401.78 149.89 380.61 149.89 380.68 132.46 380.75 115.24 359.84 115.24 359.65 132.46 359.45 149.89 359.25 167.53 359.05 185.39 380.47 185.39 401.89 185.39 423.3 185.39 423.11 167.53 422.93 149.89"/>
    <polygon class="cls-2" points="401.56 81.39 380.89 81.39 380.82 98.21 401.61 98.21 401.56 81.39"/>
    <polygon class="cls-2" points="316.68 167.53 295.4 167.53 295.98 149.89 274.81 149.89 274.1 167.53 273.39 185.39 294.81 185.39 316.22 185.39 337.64 185.39 337.97 167.53 338.29 149.89 317.13 149.89 316.68 167.53"/>
    <polygon class="cls-2" points="317.58 132.46 318.02 115.24 297.11 115.24 296.55 132.46 317.58 132.46"/>
    <polygon class="cls-2" points="297.67 98.21 276.88 98.21 276.2 115.24 297.11 115.24 297.67 98.21"/>
    <polygon class="cls-2" points="231.53 167.53 210.24 167.53 211.33 149.89 190.17 149.89 188.96 167.53 187.73 185.39 209.14 185.39 230.56 185.39 251.97 185.39 252.81 167.53 253.65 149.89 232.49 149.89 231.53 167.53"/>
    <polygon class="cls-2" points="233.44 132.46 212.4 132.46 211.33 149.89 232.49 149.89 233.44 132.46"/>
    <polygon class="cls-2" points="214.51 98.21 193.73 98.21 192.55 115.24 213.46 115.24 214.51 98.21"/>
    <polygon class="cls-2" points="146.38 167.53 125.09 167.53 103.8 167.53 105.38 151.57 105.53 149.89 105.2 149.89 84.36 149.89 82.52 167.53 82.51 167.53 84.36 149.89 63.21 149.89 61.23 167.53 39.94 167.53 42.04 149.89 44.12 132.46 23.09 132.46 20.89 149.89 18.66 167.53 16.4 185.39 37.81 185.39 59.23 185.39 80.64 185.39 102.06 185.39 123.48 185.39 144.89 185.39 166.31 185.39 167.67 167.53 169.01 149.89 147.85 149.89 146.38 167.53"/>
    <polygon class="cls-2" points="150.73 115.24 129.82 115.24 108.91 115.24 107.23 132.46 128.26 132.46 126.69 149.89 147.85 149.89 149.3 132.46 150.73 115.24"/>
    <polygon class="cls-2" points="67.09 115.24 46.18 115.24 44.12 132.46 65.16 132.46 67.09 115.24"/>
    <polygon class="cls-2" points="34.03 118.51 24.74 118.51 23.72 126.71 33.03 126.71 34.03 118.51"/>
    <polygon class="cls-2" points="138.19 94.2 128.98 94.2 128.26 102.26 137.47 102.26 138.19 94.2"/>
    <polygon class="cls-2" points="212.76 78.22 203.61 78.22 203.09 86.19 212.27 86.19 212.76 78.22"/>
    <polygon class="cls-2" points="238.53 110.36 229.28 110.36 228.82 118.51 238.09 118.51 238.53 110.36"/>
    <polygon class="cls-2" points="330.53 134.95 339.85 134.95 339.99 126.71 330.7 126.71 330.53 134.95"/>
    <polygon class="cls-2" points="322.35 86.19 313.18 86.19 312.97 94.2 322.17 94.2 322.35 86.19"/>
    <polygon class="cls-2" points="414.16 94.2 414.22 102.26 423.45 102.26 423.35 94.2 414.16 94.2"/>
    <polygon class="cls-2" points="450.78 86.19 450.96 94.2 460.15 94.2 459.96 86.19 450.78 86.19"/>
    <polygon class="cls-2" points="506.78 110.36 506.47 102.26 497.23 102.26 497.53 110.36 506.78 110.36"/>
    <polygon class="cls-2" points="570.53 94.2 571.03 102.26 580.27 102.26 579.73 94.2 570.53 94.2"/>
    <polygon class="cls-2" points="699.32 94.2 698.47 86.19 689.29 86.19 690.11 94.2 699.32 94.2"/>
    <polygon class="cls-2" points="626.39 102.26 625.72 94.2 616.53 94.2 617.16 102.26 626.39 102.26"/>
    <polygon class="cls-2" points="666.35 134.95 665.57 126.71 656.28 126.71 657.03 134.95 666.35 134.95"/>
  </g>
  <g id="SHINE" class="cls-14">
    <path class="cls-6" d="M22.95,132.88l-5.07,40.47,12.04,12.04h45.54l-52.51-52.51Zm151.86-51.48l.1-1.3L110.79,16H37.59l-4.26,33.97L98.61,115.25h10.6l-.93,9.67,58.84,58.84,6.42-85.53h-20.89l1.38-16.83h20.77Zm-62.32,0h-20.77l3.44-33.07h20.53l-3.2,33.07Z"/>
    <g>
      <polygon class="cls-34" points="253.42 158.61 253.42 158.62 252.18 185.39 187.6 185.39 193.52 98.71 253.42 158.61"/>
      <polygon class="cls-35" points="260.04 16 259.81 20.88 254.94 16 260.04 16"/>
      <polygon class="cls-37" points="280.2 185.39 273.7 185.39 273.95 179.14 280.2 185.39"/>
      <polygon class="cls-39" points="340.55 56.08 339.77 100.82 279.4 40.46 280.35 16 300.47 16 340.55 56.08"/>
    </g>
    <g>
      <polygon class="cls-38" points="748.75 48.33 732.69 48.33 700.35 16 744.7 16 748.75 48.33"/>
      <polygon class="cls-40" points="740.25 185.39 615.28 185.39 605.15 50.28 673.4 118.52 676.42 149.91 704.78 149.91 740.25 185.39"/>
    </g>
    <polygon class="cls-41" points="570.99 149.91 549.72 149.91 551.28 178.86 441.97 69.55 441.03 16 501.94 16 504.51 81.4 525.28 81.4 522.24 16 583.16 16 584.05 29.18 589.91 115.25 568.89 115.25 570.99 149.91"/>
    <g>
      <polygon class="cls-36" points="421.96 49.53 388.43 16 421.59 16 421.96 49.53"/>
      <polygon class="cls-7" points="423.42 184.47 359.56 120.62 360.05 75.58 422.92 138.45 423.42 184.47"/>
    </g>
  </g>
</svg>